<?xml version="1.0" encoding="UTF-8" standalone="no"?>
<svg
   xmlns:dc="http://purl.org/dc/elements/1.1/"
   xmlns:cc="http://creativecommons.org/ns#"
   xmlns:rdf="http://www.w3.org/1999/02/22-rdf-syntax-ns#"
   xmlns:svg="http://www.w3.org/2000/svg"
   xmlns="http://www.w3.org/2000/svg"
   xmlns:sodipodi="http://sodipodi.sourceforge.net/DTD/sodipodi-0.dtd"
   xmlns:inkscape="http://www.inkscape.org/namespaces/inkscape"
   version="1.0"
   width="497.9393"
   height="161.37537"
   viewBox="0 0 398.35144 129.10029"
   preserveAspectRatio="xMidYMid meet"
   id="svg2"
   inkscape:version="0.48.5 r10040"
   sodipodi:docname="vibora-blanca.svg">
  <defs
     id="defs12" />
  <sodipodi:namedview
     pagecolor="#ffffff"
     bordercolor="#666666"
     borderopacity="1"
     objecttolerance="10"
     gridtolerance="10"
     guidetolerance="10"
     inkscape:pageopacity="0"
     inkscape:pageshadow="2"
     inkscape:window-width="1920"
     inkscape:window-height="1025"
     id="namedview10"
     showgrid="false"
     inkscape:zoom="2.4203038"
     inkscape:cx="282.73852"
     inkscape:cy="109.46134"
     inkscape:window-x="-4"
     inkscape:window-y="-3"
     inkscape:window-maximized="1"
     inkscape:current-layer="svg2"
     showguides="true"
     inkscape:guide-bbox="true"
     fit-margin-top="0"
     fit-margin-left="0"
     fit-margin-right="0"
     fit-margin-bottom="0" />
  <metadata
     id="metadata4">
Created by potrace 1.8, written by Peter Selinger 2001-2007
<rdf:RDF>
  <cc:Work
     rdf:about="">
    <dc:format>image/svg+xml</dc:format>
    <dc:type
       rdf:resource="http://purl.org/dc/dcmitype/StillImage" />
    <dc:title></dc:title>
  </cc:Work>
</rdf:RDF>
</metadata>
  <g
     transform="matrix(0.096495,0,0,-0.096495,-41.548469,142.45312)"
     id="g6"
     style="fill:none;stroke:#000000;stroke-width:20.72646332;stroke-miterlimit:4;stroke-opacity:1;stroke-dasharray:none">
    <path
       d="m 1665,1440 c -92.752,-38.2485 -196,-96 -247,-172 -60,-87 -100,-242 -114,-437 -7,-95 -21,-130 -68,-173 C 1153,581 1026,537 836,520 541,492 466,481 453,464 c -18,-25 -16,-42 7,-54 33,-18 298,-14 715,11 231,13 448,11 551,-5 213,-34 255,-38 443,-36 361,5 425,4 666,-4 132,-4 499,-9 815,-11 316,-2 631.4135,-5.46896 723.4135,-9.46896 153,-7 168,-6 174,10 5,11 -9.5422,35.90445 -23,47 -24.3997,20.11689 -77.4949,23.67859 -91.6009,24.68958 -145.8301,10.45182 -247.3991,10.31042 -247.3991,10.31042 C 4015.4135,449.53104 3807,453 3700,454 c -198,2 -289,15 -365,52 -55,27 -84,82 -255,497 -23,55 -47,93 -83,131 -93,96 -169,120 -335,104 -172,-16 -272,10 -581,150 0,0 -92.427,51.4381 -143,65 -41.3845,11.0979 -85.116,14.1374 -127.9313,12.4967 C 1761.0073,1463.6166 1710.3896,1458.7175 1665,1440 z"
       id="path8"
       style="fill:none;stroke:#000000;stroke-width:20.72646332;stroke-miterlimit:4;stroke-opacity:1;stroke-dasharray:none"
       inkscape:connector-curvature="0"
       sodipodi:nodetypes="accccccccccsccascccccccaaa" />
  </g>
  <path
     sodipodi:type="arc"
     style="fill:none;stroke:#000000;stroke-width:1;stroke-linecap:round;stroke-miterlimit:4;stroke-opacity:1;stroke-dasharray:none;stroke-dashoffset:0"
     id="path3795"
     sodipodi:cx="492.5726"
     sodipodi:cy="134.467"
     sodipodi:rx="0.25621462"
     sodipodi:ry="0.22418779"
     d="m 492.82882,134.467 a 0.25621462,0.22418779 0 1 1 -0.51243,0 0.25621462,0.22418779 0 1 1 0.51243,0 z"
     transform="matrix(0.8506205,0,0,0.8506205,-29.915305,-10.811732)" />
  <g
     style="font-size:30.45685959px;font-style:normal;font-variant:normal;font-weight:normal;font-stretch:normal;line-height:125%;letter-spacing:0px;word-spacing:0px;fill:#000000;fill-opacity:1;stroke:none;font-family:Carlito;-inkscape-font-specification:Carlito"
     id="text2984">
    <path
       d="m 290.44222,94.979614 0,-14.54434 1.54663,0 c 0.19829,1.5e-5 0.35196,0.04463 0.46102,0.133844 0.11897,0.07933 0.18837,0.213172 0.2082,0.401531 l 0.22307,1.487151 c 0.2776,-0.327161 0.56512,-0.624591 0.86255,-0.892291 0.30734,-0.277588 0.63451,-0.515532 0.98152,-0.713833 0.347,-0.208186 0.71878,-0.366816 1.11537,-0.475888 0.39656,-0.109043 0.81792,-0.163572 1.26407,-0.163587 1.00134,1.5e-5 1.81432,0.272659 2.43893,0.817934 0.63451,0.545302 1.08561,1.278962 1.35331,2.200984 0.20819,-0.535363 0.48083,-0.991422 0.81793,-1.36818 0.34699,-0.376731 0.72869,-0.689033 1.14511,-0.936905 0.41639,-0.247844 0.86253,-0.426302 1.33844,-0.535374 0.47587,-0.118958 0.96167,-0.178444 1.4574,-0.178459 1.58628,1.5e-5 2.8107,0.475903 3.67327,1.427666 0.87244,0.951789 1.30867,2.310052 1.30869,4.074794 l 0,9.264953 -2.61739,0 0,-9.264953 c -10e-6,-1.130224 -0.25779,-1.982857 -0.77331,-2.5579 -0.51557,-0.584934 -1.25419,-0.877407 -2.21586,-0.877419 -0.43625,1.2e-5 -0.84769,0.07437 -1.23433,0.223072 -0.38668,0.138814 -0.72872,0.356929 -1.02614,0.654347 -0.28753,0.287528 -0.52052,0.644443 -0.69896,1.070749 -0.16856,0.426327 -0.25283,0.922044 -0.25282,1.487151 l 0,9.264953 -2.61738,0 0,-9.264953 c -1e-5,-1.159967 -0.24291,-2.022514 -0.72871,-2.587643 -0.47589,-0.565105 -1.17981,-0.847664 -2.11175,-0.847676 -0.63453,1.2e-5 -1.22939,0.168556 -1.78458,0.505631 -0.55521,0.327185 -1.06084,0.783245 -1.5169,1.368179 l 0,10.826462 -2.61738,0"
       style=""
       id="path2989" />
    <path
       d="m 314.22177,94.979614 0,0 m 3.16763,-14.54434 0,14.54434 -2.61739,0 0,-14.54434 2.61739,0 m 0.50563,-4.550683 c -1e-5,0.247877 -0.0496,0.485821 -0.14872,0.713833 -0.0991,0.218133 -0.23794,0.411463 -0.4164,0.579989 -0.16855,0.158647 -0.36683,0.287533 -0.59486,0.386659 -0.21812,0.09916 -0.4511,0.148732 -0.69896,0.148715 -0.24786,1.7e-5 -0.48085,-0.04955 -0.69896,-0.148715 -0.21812,-0.09913 -0.41145,-0.228012 -0.57999,-0.386659 -0.15863,-0.168526 -0.28752,-0.361856 -0.38666,-0.579989 -0.0991,-0.228012 -0.14872,-0.465956 -0.14871,-0.713833 -10e-6,-0.257754 0.0496,-0.495698 0.14871,-0.713833 0.0991,-0.22801 0.22803,-0.426296 0.38666,-0.59486 0.16854,-0.168523 0.36187,-0.302367 0.57999,-0.401531 0.21811,-0.09912 0.4511,-0.148694 0.69896,-0.148715 0.24786,2.1e-5 0.48084,0.04959 0.69896,0.148715 0.22803,0.09916 0.42631,0.233008 0.59486,0.401531 0.17846,0.168564 0.31726,0.36685 0.4164,0.59486 0.0991,0.218135 0.14871,0.456079 0.14872,0.713833"
       style=""
       id="path2991" />
    <path
       d="m 324.40875,73.832322 0,21.147292 -2.61738,0 0,-21.147292 2.61738,0"
       style=""
       id="path2993" />
    <path
       d="m 334.6701,80.212201 c 1.06082,1.5e-5 2.01755,0.178473 2.8702,0.535375 0.85262,0.347016 1.57637,0.84769 2.17124,1.502023 0.59485,0.644444 1.05091,1.427676 1.36818,2.349699 0.32716,0.922043 0.49074,1.953134 0.49076,3.093275 -2e-5,1.15007 -0.1636,2.186117 -0.49076,3.108146 -0.31727,0.922037 -0.77333,1.710226 -1.36818,2.364571 -0.59487,0.644433 -1.31862,1.145107 -2.17124,1.502022 -0.85265,0.347002 -1.80938,0.520503 -2.8702,0.520503 -1.06085,0 -2.02254,-0.173501 -2.88508,-0.520503 -0.85264,-0.356915 -1.58134,-0.857589 -2.18611,-1.502022 -0.59486,-0.654345 -1.05588,-1.442534 -1.38305,-2.364571 -0.31726,-0.922029 -0.47589,-1.958076 -0.47589,-3.108146 0,-1.140141 0.15863,-2.171232 0.47589,-3.093275 0.32717,-0.922023 0.78819,-1.705255 1.38305,-2.349699 0.60477,-0.654333 1.33347,-1.155007 2.18611,-1.502023 0.86254,-0.356902 1.82423,-0.53536 2.88508,-0.535375 m 0,12.938217 c 0.70391,2e-6 1.31859,-0.11897 1.84406,-0.356916 0.52545,-0.247856 0.96168,-0.604772 1.3087,-1.070749 0.3569,-0.465971 0.61963,-1.036045 0.78819,-1.710224 0.17844,-0.67417 0.26767,-1.442531 0.26768,-2.305085 -1e-5,-0.862539 -0.0892,-1.6309 -0.26768,-2.305084 -0.16856,-0.674165 -0.43129,-1.24424 -0.78819,-1.710224 -0.34702,-0.465963 -0.78325,-0.822879 -1.3087,-1.070749 -0.52547,-0.247846 -1.14015,-0.371776 -1.84406,-0.371788 -0.71384,1.2e-5 -1.33845,0.123942 -1.87381,0.371788 -0.52547,0.24787 -0.96666,0.604786 -1.32357,1.070749 -0.34701,0.465984 -0.60974,1.036059 -0.78819,1.710224 -0.16855,0.674184 -0.25282,1.442545 -0.25282,2.305084 0,0.862554 0.0843,1.630915 0.25282,2.305085 0.17845,0.674179 0.44118,1.244253 0.78819,1.710224 0.35691,0.465977 0.7981,0.822893 1.32357,1.070749 0.53536,0.237946 1.15997,0.356918 1.87381,0.356916"
       style=""
       id="path2995" />
    <path
       d="m 344.76786,94.979614 0,-14.54434 1.56151,0 c 0.18836,1.5e-5 0.34204,0.04463 0.46101,0.133844 0.11897,0.07933 0.18837,0.213172 0.2082,0.401531 l 0.22308,1.546637 c 0.62459,-0.693991 1.32355,-1.249193 2.09688,-1.66561 0.77331,-0.426302 1.6656,-0.63946 2.67687,-0.639475 0.79314,1.5e-5 1.48714,0.133859 2.08201,0.401531 0.60477,0.257787 1.1104,0.629575 1.5169,1.115364 0.40647,0.475901 0.71382,1.055889 0.92203,1.739967 0.20819,0.674186 0.31229,1.422718 0.3123,2.245598 l 0,9.264953 -2.61738,0 0,-9.264953 c -1e-5,-1.080653 -0.24787,-1.923371 -0.74358,-2.528157 -0.48581,-0.604762 -1.22939,-0.90715 -2.23073,-0.907162 -0.74358,1.2e-5 -1.43758,0.17847 -2.08201,0.535374 -0.64444,0.347014 -1.23434,0.832816 -1.76971,1.457409 l 0,10.707489 -2.61738,0"
       style=""
       id="path2997" />
    <path
       d="m 365.55823,80.19733 c 0.60477,1.5e-5 1.16989,0.06942 1.69535,0.208201 0.52545,0.138815 1.00134,0.337102 1.42767,0.594861 l 3.80711,0 0,0.966648 c -2e-5,0.347015 -0.1983,0.550258 -0.59486,0.609732 l -1.54664,0.223073 c 0.30733,0.634529 0.461,1.328532 0.46102,2.082012 -2e-5,0.713842 -0.13386,1.358273 -0.40154,1.933296 -0.25778,0.57504 -0.61965,1.065799 -1.08562,1.47228 -0.46598,0.406495 -1.02118,0.723753 -1.66561,0.951777 -0.63452,0.218121 -1.33348,0.327179 -2.09688,0.327173 -0.63452,6e-6 -1.21947,-0.07435 -1.75484,-0.223072 -0.28752,0.188378 -0.50068,0.391621 -0.63947,0.609732 -0.13881,0.208206 -0.20821,0.416407 -0.2082,0.624603 -10e-6,0.347006 0.13384,0.604779 0.40153,0.773319 0.26768,0.168547 0.61964,0.292476 1.05587,0.371788 0.43623,0.07932 0.93195,0.128889 1.48716,0.148715 0.55519,0.01983 1.12031,0.05453 1.69535,0.104101 0.58493,0.03966 1.15501,0.10906 1.71022,0.208201 0.55519,0.09915 1.05091,0.272647 1.48715,0.520503 0.43622,0.237946 0.78818,0.570076 1.05588,0.996391 0.26767,0.416403 0.40152,0.961692 0.40153,1.635867 -10e-6,0.624602 -0.14873,1.229376 -0.44614,1.814324 -0.29745,0.584944 -0.72872,1.105446 -1.29383,1.561509 -0.55521,0.456056 -1.2393,0.817929 -2.05226,1.085621 -0.80307,0.277595 -1.71519,0.416395 -2.73636,0.416405 -1.02119,-10e-6 -1.91348,-0.10411 -2.67688,-0.312305 -0.7634,-0.208206 -1.39792,-0.490764 -1.90355,-0.847676 -0.50563,-0.35692 -0.88238,-0.768365 -1.13023,-1.234336 -0.24786,-0.465976 -0.37179,-0.951778 -0.37179,-1.457408 0,-0.713833 0.2082,-1.318608 0.6246,-1.814325 0.42632,-0.495716 1.01126,-0.887332 1.75484,-1.174849 -0.40649,-0.188371 -0.72871,-0.446144 -0.96665,-0.773319 -0.23794,-0.32717 -0.35692,-0.763401 -0.35691,-1.308693 -10e-6,-0.416398 0.14871,-0.857586 0.44614,-1.323565 0.29743,-0.465968 0.74357,-0.852627 1.33844,-1.159978 -0.6841,-0.406481 -1.22443,-0.941855 -1.621,-1.606123 -0.38666,-0.664253 -0.57999,-1.437571 -0.57999,-2.319956 0,-0.713822 0.12889,-1.358254 0.38666,-1.933297 0.26769,-0.575019 0.63452,-1.065779 1.10049,-1.47228 0.46598,-0.416388 1.02118,-0.733647 1.66561,-0.951777 0.64443,-0.218101 1.35331,-0.327158 2.12663,-0.327173 m 4.283,15.570474 c -10e-6,-0.347002 -0.0942,-0.62956 -0.28256,-0.847676 -0.17847,-0.218115 -0.42633,-0.386659 -0.74358,-0.505631 -0.31727,-0.128886 -0.6841,-0.218115 -1.10049,-0.267687 -0.41641,-0.05949 -0.8576,-0.1041 -1.32356,-0.133844 -0.46599,-0.02974 -0.94187,-0.05453 -1.42767,-0.07436 -0.47589,-0.01983 -0.93691,-0.06444 -1.38305,-0.133843 -0.48581,0.257774 -0.88238,0.570075 -1.18972,0.936905 -0.30735,0.356916 -0.46102,0.78819 -0.46102,1.293822 0,0.327172 0.0744,0.629559 0.22307,0.907162 0.14872,0.277599 0.37675,0.515543 0.68409,0.713833 0.31726,0.208198 0.71879,0.371784 1.2046,0.49076 0.48579,0.118968 1.06082,0.178454 1.72509,0.178458 0.65434,-4e-6 1.23433,-0.06445 1.73997,-0.19333 0.50562,-0.128889 0.93194,-0.307347 1.27895,-0.535374 0.34699,-0.218118 0.60972,-0.485805 0.78819,-0.803062 0.17845,-0.307346 0.26768,-0.649391 0.26769,-1.026135 m -4.283,-7.926516 c 0.96168,7e-6 1.68543,-0.26768 2.17124,-0.803062 0.49571,-0.535366 0.74357,-1.234326 0.74358,-2.096883 -10e-6,-0.882366 -0.24787,-1.581326 -0.74358,-2.096884 -0.48581,-0.525447 -1.20956,-0.788177 -2.17124,-0.78819 -0.94187,1.3e-5 -1.66066,0.262743 -2.15637,0.78819 -0.48581,0.515558 -0.72871,1.214518 -0.7287,2.096884 -10e-6,0.426326 0.0595,0.817942 0.17846,1.174849 0.12888,0.347011 0.31229,0.649398 0.55024,0.907163 0.24785,0.25778 0.55024,0.461024 0.90716,0.609732 0.36683,0.138808 0.78323,0.208208 1.24921,0.208201"
       style=""
       id="path2999" />
    <path
       d="m 384.04352,94.979614 c -0.25778,0 -0.45607,-0.03966 -0.59486,-0.118972 -0.13881,-0.07931 -0.23299,-0.242901 -0.28256,-0.49076 l -0.32717,-1.353308 c -0.37675,0.347004 -0.74854,0.659306 -1.11536,0.936906 -0.35693,0.267688 -0.73367,0.495717 -1.13024,0.684089 -0.39658,0.188373 -0.8229,0.327174 -1.27895,0.416403 -0.45606,0.09914 -0.95674,0.148715 -1.50202,0.148715 -0.56512,0 -1.09554,-0.07436 -1.59125,-0.223073 -0.48581,-0.158629 -0.91708,-0.396573 -1.29382,-0.713832 -0.36684,-0.327173 -0.65931,-0.728703 -0.87742,-1.204593 -0.20821,-0.4858 -0.31231,-1.055874 -0.31231,-1.710224 0,-0.575028 0.15368,-1.125273 0.46102,-1.650738 0.31726,-0.535369 0.82785,-1.011257 1.53177,-1.427665 0.70391,-0.416396 1.62099,-0.753483 2.75123,-1.011263 1.13023,-0.267679 2.51823,-0.421352 4.16402,-0.461017 l 0,-1.115364 c -10e-6,-1.130224 -0.24291,-1.9779 -0.7287,-2.543028 -0.4759,-0.57502 -1.17486,-0.862536 -2.09689,-0.862548 -0.61469,1.2e-5 -1.13519,0.07933 -1.56151,0.237944 -0.4164,0.158642 -0.77828,0.332143 -1.08562,0.520503 -0.30734,0.188384 -0.57503,0.361885 -0.80306,0.520503 -0.21812,0.158641 -0.44119,0.237955 -0.66922,0.237944 -0.17846,1.1e-5 -0.33213,-0.0446 -0.46101,-0.133843 -0.12889,-0.08922 -0.23299,-0.203233 -0.3123,-0.342045 l -0.47589,-0.832805 c 0.80306,-0.773305 1.6656,-1.348337 2.58764,-1.725096 0.93194,-0.386644 1.96303,-0.579974 3.09328,-0.579989 0.81296,1.5e-5 1.53671,0.133859 2.17124,0.401531 0.6345,0.257787 1.16492,0.629575 1.59125,1.115364 0.4263,0.485815 0.74852,1.065804 0.96665,1.739967 0.22801,0.674186 0.34203,1.422718 0.34204,2.245598 l 0,9.294696 -1.15998,0 m -5.44297,-1.606123 c 0.43622,10e-7 0.83775,-0.04461 1.20459,-0.133844 0.36683,-0.08923 0.71383,-0.213156 1.04101,-0.371788 0.32716,-0.168541 0.63451,-0.371785 0.92203,-0.609732 0.29742,-0.247855 0.5899,-0.520499 0.87742,-0.817933 l 0,-3.004046 c -1.15999,0.04958 -2.14646,0.148722 -2.95943,0.297431 -0.81298,0.138806 -1.47724,0.327179 -1.99278,0.565117 -0.50564,0.23795 -0.87247,0.520508 -1.10049,0.847676 -0.22804,0.317264 -0.34205,0.67418 -0.34205,1.070749 0,0.376749 0.0595,0.703922 0.17846,0.98152 0.12888,0.26769 0.29742,0.490762 0.50563,0.669218 0.2082,0.168546 0.45605,0.297432 0.74358,0.38666 0.28751,0.07932 0.59485,0.118973 0.92203,0.118972"
       style=""
       id="path3001" />
  </g>
  <g
     transform="matrix(0.99991956,0.01268338,-0.01268338,0.99991956,0,0)"
     style="font-size:16.34403229px;font-style:normal;font-variant:normal;font-weight:normal;font-stretch:normal;line-height:125%;letter-spacing:0px;word-spacing:0px;fill:#000000;fill-opacity:1;stroke:none;font-family:Linux Libertine O;-inkscape-font-specification:Linux Libertine O"
     id="text2988">
    <path
       d="m 135.57596,110.80602 0,2.15741 c 0,0.21248 -0.0981,0.32689 -0.22882,0.42495 -0.42494,0.34322 -0.98064,0.71914 -1.43827,0.71914 -0.81721,0 -1.17678,-0.65377 -1.17678,-1.16043 0,-0.73548 0.34323,-1.48731 1.55269,-1.79784 l 1.29118,-0.34323 m 0,3.02365 c 0.0981,0.50666 0.2615,0.94795 1.09505,0.94795 0.62107,0 1.20946,-0.27785 1.55268,-0.60473 -0.0327,-0.19613 -0.0981,-0.32688 -0.27785,-0.44129 -0.13075,0.11441 -0.4086,0.26151 -0.60473,0.26151 -0.47397,0 -0.49032,-0.63742 -0.49032,-1.38924 l 0,-2.40258 c 0,-2.32085 -1.27483,-2.76214 -2.46795,-2.76214 -1.34021,0 -2.69676,0.88258 -2.69676,1.81419 0,0.39226 0.19613,0.58838 0.57204,0.58838 0.47397,0 0.76817,-0.34322 0.76817,-0.55569 0,-0.11441 -0.0163,-0.22882 -0.049,-0.2942 -0.0163,-0.049 -0.0327,-0.14709 -0.0327,-0.32688 0,-0.50666 0.68645,-0.68645 1.30752,-0.68645 0.5557,0 1.32387,0.27785 1.32387,2.12473 0,0.11441 -0.049,0.17978 -0.0981,0.19613 l -1.40558,0.34322 c -1.56903,0.39226 -2.69677,1.25849 -2.69677,2.36989 0,1.34021 0.91527,1.76515 2.05935,1.76515 0.55569,0 1.06236,-0.13075 1.7815,-0.68645 l 0.32688,-0.2615 0.0327,0"
       style=""
       id="path3004" />
    <path
       d="m 145.2031,112.62021 0,-4.3802 1.52,0 c 0.14709,0 0.37591,-0.0654 0.37591,-0.21247 l 0,-0.32688 c 0,-0.0654 -0.049,-0.0981 -0.13075,-0.0981 l -1.76516,0 0,-0.93161 c 0,-2.51698 0.75183,-2.90924 1.29118,-2.90924 0.49032,0 0.75183,0.19613 0.98064,0.76817 0.13076,0.2942 0.31054,0.52301 0.65376,0.52301 0.27785,0 0.67011,-0.34322 0.67011,-0.6701 0,-0.27785 -0.17978,-0.57204 -0.52301,-0.83355 -0.42494,-0.29419 -0.84989,-0.34322 -1.47096,-0.34322 -1.3729,0 -2.8929,1.19311 -2.8929,3.74278 l 0,0.65376 -0.83354,0 c -0.29419,0 -0.37591,0.19613 -0.37591,0.32688 l 0,0.21247 c 0,0.0817 0.0163,0.0981 0.0817,0.0981 l 1.12773,0 0,4.3802 c 0,1.35655 -0.2615,1.42193 -1.14408,1.48731 -0.0981,0.0981 -0.0981,0.44129 0,0.53935 0.57204,-0.0163 1.14409,-0.0327 1.79785,-0.0327 0.65376,0 1.43827,0.0163 2.01031,0.0327 0.0981,-0.0981 0.0981,-0.44129 0,-0.53935 -1.27483,-0.0654 -1.3729,-0.13076 -1.3729,-1.48731"
       style=""
       id="path3006" />
    <path
       d="m 150.29504,108.76302 c -0.0327,-0.65376 -0.0654,-1.06236 -0.13076,-1.24215 -0.049,-0.0654 -0.0654,-0.13075 -0.19613,-0.13075 -0.45763,0.17978 -0.88257,0.32688 -2.01031,0.47398 -0.0327,0.0981 0,0.35956 0.0327,0.45763 0.88257,0.0817 1.06236,0.16344 1.06236,1.11139 l 0,3.18709 c 0,1.35655 -0.19613,1.42193 -1.20946,1.48731 -0.0981,0.0981 -0.0981,0.44129 0,0.53935 0.57204,-0.0163 1.20946,-0.0327 1.86322,-0.0327 0.65376,0 1.40559,0.0163 1.97763,0.0327 0.0981,-0.0981 0.0981,-0.44129 0,-0.53935 -1.14408,-0.0817 -1.34021,-0.13076 -1.34021,-1.48731 l 0,-2.27182 c 0,-0.42495 0.19613,-0.80086 0.39225,-1.09505 0.17979,-0.26151 0.5557,-0.80086 0.75183,-0.80086 0.1471,0 0.29419,0.049 0.4086,0.21247 0.13075,0.16344 0.31054,0.37592 0.60473,0.37592 0.39226,0 0.76817,-0.4086 0.76817,-0.81721 0,-0.31053 -0.29419,-0.78451 -0.98064,-0.78451 -0.76817,0 -1.43828,0.71914 -1.81419,1.35656 -0.0981,0.17978 -0.17978,0.049 -0.17978,-0.0327"
       style=""
       id="path3008" />
    <path
       d="m 155.38262,110.00516 c 0.31054,-1.84687 1.45462,-1.99397 1.84688,-1.99397 0.62107,0 1.35655,0.34323 1.35655,1.71613 0,0.14709 -0.0654,0.22881 -0.24516,0.22881 l -2.95827,0.049 m 4.28214,3.08903 c -0.60473,0.62107 -1.07871,0.88257 -2.02666,0.88257 -0.58838,0 -1.27483,-0.34322 -1.7815,-1.17677 -0.32688,-0.53935 -0.52301,-1.29118 -0.52301,-2.23913 l 4.34752,0.0327 c 0.19612,0 0.31053,-0.0981 0.31053,-0.27785 0,-1.3729 -0.49032,-2.84386 -2.76214,-2.84386 -1.42193,0 -3.26881,1.35656 -3.26881,3.84085 0,0.91526 0.22882,1.79784 0.76817,2.41891 0.5557,0.65376 1.32387,1.04602 2.50064,1.04602 1.24215,0 2.12473,-0.57204 2.77849,-1.42193 -0.049,-0.16344 -0.1471,-0.24516 -0.34323,-0.2615"
       style=""
       id="path3010" />
    <path
       d="m 162.82044,110.00516 c 0.31053,-1.84687 1.45462,-1.99397 1.84687,-1.99397 0.62108,0 1.35656,0.34323 1.35656,1.71613 0,0.14709 -0.0654,0.22881 -0.24516,0.22881 l -2.95827,0.049 m 4.28213,3.08903 c -0.60472,0.62107 -1.0787,0.88257 -2.02666,0.88257 -0.58838,0 -1.27483,-0.34322 -1.7815,-1.17677 -0.32688,-0.53935 -0.523,-1.29118 -0.523,-2.23913 l 4.34751,0.0327 c 0.19613,0 0.31053,-0.0981 0.31053,-0.27785 0,-1.3729 -0.49032,-2.84386 -2.76214,-2.84386 -1.42193,0 -3.2688,1.35656 -3.2688,3.84085 0,0.91526 0.22881,1.79784 0.76817,2.41891 0.55569,0.65376 1.32386,1.04602 2.50063,1.04602 1.24215,0 2.12473,-0.57204 2.77849,-1.42193 -0.049,-0.16344 -0.1471,-0.24516 -0.34323,-0.2615"
       style=""
       id="path3012" />
    <path
       d="m 175.19721,108.76302 c -0.11441,0.11441 -0.19613,0.16344 -0.19613,0 -0.0163,-0.44129 -0.0654,-1.06236 -0.13075,-1.24215 -0.049,-0.0654 -0.0654,-0.13075 -0.19613,-0.13075 -0.45763,0.17978 -0.88258,0.32688 -2.01031,0.47398 -0.0327,0.0981 0,0.35956 0.0327,0.45763 0.88257,0.0817 1.06236,0.16344 1.06236,1.11139 l 0,3.18709 c 0,1.34021 -0.16344,1.40559 -1.14408,1.48731 -0.0981,0.0981 -0.0981,0.44129 0,0.53935 0.49032,-0.0163 1.14408,-0.0327 1.79784,-0.0327 0.65376,0 1.14408,0.0163 1.6344,0.0327 0.0981,-0.0981 0.0981,-0.44129 0,-0.53935 -0.83354,-0.0817 -0.99698,-0.1471 -0.99698,-1.48731 l 0,-2.68042 c 0,-0.34323 0.14709,-0.53935 0.27785,-0.68645 0.62107,-0.60473 1.35655,-0.9643 1.99397,-0.9643 0.32688,0 0.6701,0.21247 0.86623,0.58839 0.16344,0.32688 0.19613,0.76817 0.19613,1.25849 l 0,2.48429 c 0,1.34021 -0.16344,1.40559 -1.01333,1.48731 -0.0817,0.0981 -0.0817,0.44129 0,0.53935 0.49032,-0.0163 1.01333,-0.0327 1.66709,-0.0327 0.65376,0 1.24215,0.0163 1.73247,0.0327 0.0817,-0.0981 0.0817,-0.44129 0,-0.53935 -0.91527,-0.0817 -1.09505,-0.1471 -1.09505,-1.48731 l 0,-2.43526 c 0,-0.89892 -0.0654,-1.68344 -0.44129,-2.1901 -0.27785,-0.35957 -0.78452,-0.5557 -1.35656,-0.5557 -0.80085,0 -1.71612,0.21247 -2.68042,1.32387"
       style=""
       id="path3014" />
    <path
       d="m 184.61086,114.77762 c 0.63742,0 1.40559,-0.32688 2.20645,-0.98064 0.0817,-0.0654 0.22881,-0.0981 0.24516,0.0163 0.0327,0.42495 0.17978,0.9643 0.17978,0.9643 0.13076,0.049 0.19613,0.049 0.31054,0 0.35957,-0.29419 0.93161,-0.53935 1.9286,-0.65376 0.0981,-0.0981 0.0981,-0.34322 0,-0.44129 -1.04602,-0.0817 -1.19312,-0.39226 -1.19312,-1.19311 l 0,-3.13806 c 0,-0.49032 0.0654,-1.68343 0.0654,-1.68343 0,-0.049 -0.049,-0.0981 -0.13075,-0.0981 -0.0817,0.0164 -0.32689,0.0327 -0.57205,0.0327 -0.523,0 -1.11139,-0.0163 -1.66709,-0.0327 -0.0981,0.0981 -0.0981,0.44129 0,0.53936 0.80086,0.049 1.01333,0.24516 1.01333,1.32386 l 0,3.1544 c 0,0.31054 -0.0327,0.44129 -0.2615,0.63742 -0.60473,0.52301 -1.2258,0.78451 -1.63441,0.78451 -0.49032,0 -1.30752,-0.22882 -1.30752,-1.68343 l 0,-2.97462 c 0,-0.49032 0.0654,-1.68343 0.0654,-1.68343 0,-0.049 -0.049,-0.0981 -0.13075,-0.0981 -0.0817,0.0164 -0.32688,0.0327 -0.57204,0.0327 -0.52301,0 -1.1114,-0.0163 -1.6671,-0.0327 -0.0981,0.0981 -0.0981,0.44129 0,0.53936 0.78452,0.0654 1.01333,0.24516 1.01333,1.30752 l 0,3.13805 c 0,1.12774 0.49033,2.22279 2.10838,2.22279"
       style=""
       id="path3016" />
    <path
       d="m 196.2519,113.12687 c -0.0654,-0.14709 -0.19613,-0.21247 -0.34322,-0.22881 -0.5557,0.71913 -1.2585,1.0787 -1.96129,1.0787 -1.19311,0 -2.1901,-1.20946 -2.1901,-3.12171 0,-1.79784 0.78452,-2.87655 1.86322,-2.87655 0.9643,0 1.09505,0.57205 1.16043,1.14409 0.049,0.44129 0.27785,0.58838 0.62107,0.58838 0.34322,0 0.80086,-0.21247 0.80086,-0.71914 0,-0.89892 -0.93161,-1.55268 -2.50064,-1.55268 -1.61806,0 -3.35053,1.45462 -3.35053,3.77547 0,2.10838 1.17678,3.563 3.23612,3.563 0.98064,0 1.84688,-0.31054 2.66408,-1.65075"
       style=""
       id="path3018" />
    <path
       d="m 198.29056,112.62021 c 0,1.35655 -0.17979,1.43827 -1.17677,1.48731 -0.0981,0.0981 -0.0981,0.44129 0,0.53935 0.57204,-0.0163 1.17677,-0.0327 1.83053,-0.0327 0.65376,0 1.27484,0.0163 1.81419,0.0327 0.0981,-0.0981 0.0981,-0.44129 0,-0.53935 -0.99699,-0.049 -1.17677,-0.13076 -1.17677,-1.48731 l 0,-7.5346 c 0,-1.06236 0.0654,-1.71612 0.0654,-1.71612 0,-0.11441 -0.0654,-0.16344 -0.21247,-0.16344 -0.4086,0.16344 -1.6344,0.39225 -2.28816,0.44129 -0.0327,0.13075 0,0.39225 0.0981,0.49032 0.94795,0.0654 1.04602,0.11441 1.04602,1.34021 l 0,7.14234"
       style=""
       id="path3020" />
    <path
       d="m 203.074,110.00516 c 0.31054,-1.84687 1.45462,-1.99397 1.84688,-1.99397 0.62107,0 1.35655,0.34323 1.35655,1.71613 0,0.14709 -0.0654,0.22881 -0.24516,0.22881 l -2.95827,0.049 m 4.28214,3.08903 c -0.60473,0.62107 -1.07871,0.88257 -2.02666,0.88257 -0.58839,0 -1.27484,-0.34322 -1.7815,-1.17677 -0.32688,-0.53935 -0.52301,-1.29118 -0.52301,-2.23913 l 4.34751,0.0327 c 0.19613,0 0.31054,-0.0981 0.31054,-0.27785 0,-1.3729 -0.49033,-2.84386 -2.76214,-2.84386 -1.42193,0 -3.26881,1.35656 -3.26881,3.84085 0,0.91526 0.22882,1.79784 0.76817,2.41891 0.5557,0.65376 1.32387,1.04602 2.50064,1.04602 1.24214,0 2.12472,-0.57204 2.77848,-1.42193 -0.049,-0.16344 -0.14709,-0.24516 -0.34322,-0.2615"
       style=""
       id="path3022" />
    <path
       d="m 213.14627,110.80602 0,2.15741 c 0,0.21248 -0.0981,0.32689 -0.22882,0.42495 -0.42494,0.34322 -0.98064,0.71914 -1.43827,0.71914 -0.8172,0 -1.17677,-0.65377 -1.17677,-1.16043 0,-0.73548 0.34322,-1.48731 1.55268,-1.79784 l 1.29118,-0.34323 m 0,3.02365 c 0.0981,0.50666 0.2615,0.94795 1.09505,0.94795 0.62107,0 1.20946,-0.27785 1.55268,-0.60473 -0.0327,-0.19613 -0.0981,-0.32688 -0.27785,-0.44129 -0.13075,0.11441 -0.4086,0.26151 -0.60473,0.26151 -0.47397,0 -0.49032,-0.63742 -0.49032,-1.38924 l 0,-2.40258 c 0,-2.32085 -1.27483,-2.76214 -2.46795,-2.76214 -1.3402,0 -2.69676,0.88258 -2.69676,1.81419 0,0.39226 0.19613,0.58838 0.57204,0.58838 0.47398,0 0.76817,-0.34322 0.76817,-0.55569 0,-0.11441 -0.0163,-0.22882 -0.049,-0.2942 -0.0164,-0.049 -0.0327,-0.14709 -0.0327,-0.32688 0,-0.50666 0.68645,-0.68645 1.30752,-0.68645 0.5557,0 1.32387,0.27785 1.32387,2.12473 0,0.11441 -0.049,0.17978 -0.0981,0.19613 l -1.40558,0.34322 c -1.56903,0.39226 -2.69677,1.25849 -2.69677,2.36989 0,1.34021 0.91527,1.76515 2.05935,1.76515 0.5557,0 1.06236,-0.13075 1.7815,-0.68645 l 0.32688,-0.2615 0.0327,0"
       style=""
       id="path3024" />
    <path
       d="m 218.70375,108.76302 c -0.0327,-0.65376 -0.0654,-1.06236 -0.13075,-1.24215 -0.049,-0.0654 -0.0654,-0.13075 -0.19613,-0.13075 -0.45763,0.17978 -0.88258,0.32688 -2.01032,0.47398 -0.0327,0.0981 0,0.35956 0.0327,0.45763 0.88258,0.0817 1.06237,0.16344 1.06237,1.11139 l 0,3.18709 c 0,1.35655 -0.19613,1.42193 -1.20946,1.48731 -0.0981,0.0981 -0.0981,0.44129 0,0.53935 0.57204,-0.0163 1.20946,-0.0327 1.86322,-0.0327 0.65376,0 1.40558,0.0163 1.97762,0.0327 0.0981,-0.0981 0.0981,-0.44129 0,-0.53935 -1.14408,-0.0817 -1.34021,-0.13076 -1.34021,-1.48731 l 0,-2.27182 c 0,-0.42495 0.19613,-0.80086 0.39226,-1.09505 0.17978,-0.26151 0.5557,-0.80086 0.75183,-0.80086 0.14709,0 0.29419,0.049 0.4086,0.21247 0.13075,0.16344 0.31053,0.37592 0.60473,0.37592 0.39225,0 0.76817,-0.4086 0.76817,-0.81721 0,-0.31053 -0.2942,-0.78451 -0.98065,-0.78451 -0.76817,0 -1.43827,0.71914 -1.81418,1.35656 -0.0981,0.17978 -0.17979,0.049 -0.17979,-0.0327"
       style=""
       id="path3026" />
    <path
       d="m 228.85493,108.76302 c -0.0327,-0.65376 -0.0654,-1.06236 -0.13075,-1.24215 -0.049,-0.0654 -0.0654,-0.13075 -0.19613,-0.13075 -0.45764,0.17978 -0.88258,0.32688 -2.01032,0.47398 -0.0327,0.0981 0,0.35956 0.0327,0.45763 0.88258,0.0817 1.06236,0.16344 1.06236,1.11139 l 0,3.18709 c 0,1.35655 -0.19613,1.42193 -1.20946,1.48731 -0.0981,0.0981 -0.0981,0.44129 0,0.53935 0.57204,-0.0163 1.20946,-0.0327 1.86322,-0.0327 0.65376,0 1.40559,0.0163 1.97763,0.0327 0.0981,-0.0981 0.0981,-0.44129 0,-0.53935 -1.14408,-0.0817 -1.34021,-0.13076 -1.34021,-1.48731 l 0,-2.27182 c 0,-0.42495 0.19613,-0.80086 0.39226,-1.09505 0.17978,-0.26151 0.55569,-0.80086 0.75182,-0.80086 0.1471,0 0.2942,0.049 0.4086,0.21247 0.13076,0.16344 0.31054,0.37592 0.60473,0.37592 0.39226,0 0.76817,-0.4086 0.76817,-0.81721 0,-0.31053 -0.29419,-0.78451 -0.98064,-0.78451 -0.76817,0 -1.43828,0.71914 -1.81419,1.35656 -0.0981,0.17978 -0.17978,0.049 -0.17978,-0.0327"
       style=""
       id="path3028" />
    <path
       d="m 233.94252,110.00516 c 0.31053,-1.84687 1.45461,-1.99397 1.84687,-1.99397 0.62107,0 1.35656,0.34323 1.35656,1.71613 0,0.14709 -0.0654,0.22881 -0.24516,0.22881 l -2.95827,0.049 m 4.28213,3.08903 c -0.60473,0.62107 -1.07871,0.88257 -2.02666,0.88257 -0.58838,0 -1.27483,-0.34322 -1.7815,-1.17677 -0.32688,-0.53935 -0.52301,-1.29118 -0.52301,-2.23913 l 4.34752,0.0327 c 0.19612,0 0.31053,-0.0981 0.31053,-0.27785 0,-1.3729 -0.49032,-2.84386 -2.76214,-2.84386 -1.42193,0 -3.26881,1.35656 -3.26881,3.84085 0,0.91526 0.22882,1.79784 0.76817,2.41891 0.5557,0.65376 1.32387,1.04602 2.50064,1.04602 1.24215,0 2.12473,-0.57204 2.77849,-1.42193 -0.049,-0.16344 -0.1471,-0.24516 -0.34323,-0.2615"
       style=""
       id="path3030" />
    <path
       d="m 244.01478,110.80602 0,2.15741 c 0,0.21248 -0.0981,0.32689 -0.22881,0.42495 -0.42495,0.34322 -0.98064,0.71914 -1.43828,0.71914 -0.8172,0 -1.17677,-0.65377 -1.17677,-1.16043 0,-0.73548 0.34323,-1.48731 1.55269,-1.79784 l 1.29117,-0.34323 m 0,3.02365 c 0.0981,0.50666 0.26151,0.94795 1.09505,0.94795 0.62108,0 1.20946,-0.27785 1.55269,-0.60473 -0.0327,-0.19613 -0.0981,-0.32688 -0.27785,-0.44129 -0.13075,0.11441 -0.4086,0.26151 -0.60473,0.26151 -0.47398,0 -0.49032,-0.63742 -0.49032,-1.38924 l 0,-2.40258 c 0,-2.32085 -1.27484,-2.76214 -2.46795,-2.76214 -1.34021,0 -2.69677,0.88258 -2.69677,1.81419 0,0.39226 0.19613,0.58838 0.57205,0.58838 0.47397,0 0.76817,-0.34322 0.76817,-0.55569 0,-0.11441 -0.0164,-0.22882 -0.049,-0.2942 -0.0163,-0.049 -0.0327,-0.14709 -0.0327,-0.32688 0,-0.50666 0.68645,-0.68645 1.30753,-0.68645 0.55569,0 1.32386,0.27785 1.32386,2.12473 0,0.11441 -0.049,0.17978 -0.0981,0.19613 l -1.40559,0.34322 c -1.56902,0.39226 -2.69676,1.25849 -2.69676,2.36989 0,1.34021 0.91526,1.76515 2.05935,1.76515 0.55569,0 1.06236,-0.13075 1.7815,-0.68645 l 0.32688,-0.2615 0.0327,0"
       style=""
       id="path3032" />
    <path
       d="m 253.20063,113.12687 c -0.0654,-0.14709 -0.19612,-0.21247 -0.34322,-0.22881 -0.5557,0.71913 -1.25849,1.0787 -1.96128,1.0787 -1.19312,0 -2.1901,-1.20946 -2.1901,-3.12171 0,-1.79784 0.78451,-2.87655 1.86321,-2.87655 0.9643,0 1.09506,0.57205 1.16043,1.14409 0.049,0.44129 0.27785,0.58838 0.62107,0.58838 0.34323,0 0.80086,-0.21247 0.80086,-0.71914 0,-0.89892 -0.93161,-1.55268 -2.50063,-1.55268 -1.61806,0 -3.35053,1.45462 -3.35053,3.77547 0,2.10838 1.17677,3.563 3.23612,3.563 0.98064,0 1.84687,-0.31054 2.66407,-1.65075"
       style=""
       id="path3034" />
    <path
       d="m 254.38941,107.60259 c -0.22882,0 -0.29419,0.19613 -0.29419,0.32688 l 0,0.21247 c 0,0.0817 0.0163,0.0981 0.0817,0.0981 l 0.96429,0 0,4.91955 c 0,1.16043 0.50667,1.61806 1.25849,1.61806 0.75183,0 1.56903,-0.35957 2.20645,-1.0787 -0.0327,-0.16344 -0.13075,-0.26151 -0.29419,-0.27785 -0.42495,0.32688 -0.91527,0.45763 -1.34021,0.45763 -0.44129,0 -0.53936,-0.49032 -0.53936,-1.50365 l 0,-4.13504 1.69978,0 c 0.16344,0 0.39226,-0.0654 0.39226,-0.21247 l 0,-0.32688 c 0,-0.0654 -0.049,-0.0981 -0.13075,-0.0981 l -1.96129,0 0,-0.63742 c 0,-1.06236 0.0654,-1.71612 0.0654,-1.71612 0,-0.0981 -0.049,-0.13075 -0.13075,-0.13075 -0.0817,0 -0.21248,0.0654 -0.35957,0.1471 -0.19613,0.0981 -0.35957,0.16344 -0.5557,0.22881 -0.19613,0.049 -0.35957,0.11441 -0.35957,0.21247 0,0.19613 0.049,0.0817 0.049,1.89591 l -0.75182,0"
       style=""
       id="path3036" />
    <path
       d="m 259.52808,111.26365 c 0,1.66709 1.11139,3.51397 3.43224,3.51397 1.04602,0 1.83054,-0.35957 2.38623,-0.91526 0.73548,-0.7028 1.07871,-1.73247 1.07871,-2.7458 0,-1.69978 -0.93161,-3.67741 -3.43225,-3.67741 -1.0787,0 -1.97763,0.44129 -2.56601,1.14408 -0.58839,0.7028 -0.89892,1.65075 -0.89892,2.68042 m 3.21977,-3.25246 c 1.40559,0 2.27182,1.27484 2.27182,3.62838 0,2.05934 -1.06236,2.56601 -1.83053,2.56601 -1.69978,0 -2.25548,-2.05935 -2.25548,-3.31784 0,-1.42193 0.34323,-2.87655 1.81419,-2.87655"
       style=""
       id="path3038" />
    <path
       d="m 269.97038,108.76302 c -0.0327,-0.65376 -0.0654,-1.06236 -0.13076,-1.24215 -0.049,-0.0654 -0.0654,-0.13075 -0.19612,-0.13075 -0.45764,0.17978 -0.88258,0.32688 -2.01032,0.47398 -0.0327,0.0981 0,0.35956 0.0327,0.45763 0.88257,0.0817 1.06236,0.16344 1.06236,1.11139 l 0,3.18709 c 0,1.35655 -0.19613,1.42193 -1.20946,1.48731 -0.0981,0.0981 -0.0981,0.44129 0,0.53935 0.57204,-0.0163 1.20946,-0.0327 1.86322,-0.0327 0.65376,0 1.40559,0.0163 1.97763,0.0327 0.0981,-0.0981 0.0981,-0.44129 0,-0.53935 -1.14408,-0.0817 -1.34021,-0.13076 -1.34021,-1.48731 l 0,-2.27182 c 0,-0.42495 0.19613,-0.80086 0.39225,-1.09505 0.17979,-0.26151 0.5557,-0.80086 0.75183,-0.80086 0.1471,0 0.29419,0.049 0.4086,0.21247 0.13075,0.16344 0.31054,0.37592 0.60473,0.37592 0.39226,0 0.76817,-0.4086 0.76817,-0.81721 0,-0.31053 -0.29419,-0.78451 -0.98064,-0.78451 -0.76817,0 -1.43828,0.71914 -1.81419,1.35656 -0.0981,0.17978 -0.17978,0.049 -0.17978,-0.0327"
       style=""
       id="path3040" />
    <path
       d="m 283.74994,113.12687 c -0.0654,-0.14709 -0.19613,-0.21247 -0.34323,-0.22881 -0.5557,0.71913 -1.25849,1.0787 -1.96128,1.0787 -1.19312,0 -2.1901,-1.20946 -2.1901,-3.12171 0,-1.79784 0.78451,-2.87655 1.86322,-2.87655 0.96429,0 1.09505,0.57205 1.16042,1.14409 0.049,0.44129 0.27785,0.58838 0.62108,0.58838 0.34322,0 0.80085,-0.21247 0.80085,-0.71914 0,-0.89892 -0.93161,-1.55268 -2.50063,-1.55268 -1.61806,0 -3.35053,1.45462 -3.35053,3.77547 0,2.10838 1.17677,3.563 3.23612,3.563 0.98064,0 1.84687,-0.31054 2.66408,-1.65075"
       style=""
       id="path3042" />
    <path
       d="m 284.90602,111.26365 c 0,1.66709 1.1114,3.51397 3.43225,3.51397 1.04602,0 1.83053,-0.35957 2.38623,-0.91526 0.73548,-0.7028 1.0787,-1.73247 1.0787,-2.7458 0,-1.69978 -0.93161,-3.67741 -3.43224,-3.67741 -1.07871,0 -1.97763,0.44129 -2.56602,1.14408 -0.58838,0.7028 -0.89892,1.65075 -0.89892,2.68042 m 3.21978,-3.25246 c 1.40558,0 2.27182,1.27484 2.27182,3.62838 0,2.05934 -1.06237,2.56601 -1.83054,2.56601 -1.69977,0 -2.25547,-2.05935 -2.25547,-3.31784 0,-1.42193 0.34322,-2.87655 1.81419,-2.87655"
       style=""
       id="path3044" />
    <path
       d="m 295.34832,108.76302 c -0.0327,-0.65376 -0.0654,-1.06236 -0.13075,-1.24215 -0.049,-0.0654 -0.0654,-0.13075 -0.19613,-0.13075 -0.45763,0.17978 -0.88258,0.32688 -2.01032,0.47398 -0.0327,0.0981 0,0.35956 0.0327,0.45763 0.88258,0.0817 1.06236,0.16344 1.06236,1.11139 l 0,3.18709 c 0,1.35655 -0.19612,1.42193 -1.20945,1.48731 -0.0981,0.0981 -0.0981,0.44129 0,0.53935 0.57204,-0.0163 1.20946,-0.0327 1.86322,-0.0327 0.65376,0 1.40558,0.0163 1.97762,0.0327 0.0981,-0.0981 0.0981,-0.44129 0,-0.53935 -1.14408,-0.0817 -1.34021,-0.13076 -1.34021,-1.48731 l 0,-2.27182 c 0,-0.42495 0.19613,-0.80086 0.39226,-1.09505 0.17978,-0.26151 0.5557,-0.80086 0.75183,-0.80086 0.14709,0 0.29419,0.049 0.4086,0.21247 0.13075,0.16344 0.31053,0.37592 0.60473,0.37592 0.39225,0 0.76816,-0.4086 0.76816,-0.81721 0,-0.31053 -0.29419,-0.78451 -0.98064,-0.78451 -0.76817,0 -1.43827,0.71914 -1.81418,1.35656 -0.0981,0.17978 -0.17979,0.049 -0.17979,-0.0327"
       style=""
       id="path3046" />
    <path
       d="m 300.43592,110.00516 c 0.31053,-1.84687 1.45462,-1.99397 1.84687,-1.99397 0.62107,0 1.35656,0.34323 1.35656,1.71613 0,0.14709 -0.0654,0.22881 -0.24516,0.22881 l -2.95827,0.049 m 4.28213,3.08903 c -0.60473,0.62107 -1.0787,0.88257 -2.02666,0.88257 -0.58838,0 -1.27483,-0.34322 -1.7815,-1.17677 -0.32688,-0.53935 -0.52301,-1.29118 -0.52301,-2.23913 l 4.34752,0.0327 c 0.19612,0 0.31053,-0.0981 0.31053,-0.27785 0,-1.3729 -0.49032,-2.84386 -2.76214,-2.84386 -1.42193,0 -3.2688,1.35656 -3.2688,3.84085 0,0.91526 0.22881,1.79784 0.76816,2.41891 0.5557,0.65376 1.32387,1.04602 2.50064,1.04602 1.24215,0 2.12473,-0.57204 2.77849,-1.42193 -0.049,-0.16344 -0.1471,-0.24516 -0.34323,-0.2615"
       style=""
       id="path3048" />
    <path
       d="m 314.59419,110.80602 0,2.15741 c 0,0.21248 -0.0981,0.32689 -0.22882,0.42495 -0.42494,0.34322 -0.98064,0.71914 -1.43827,0.71914 -0.8172,0 -1.17677,-0.65377 -1.17677,-1.16043 0,-0.73548 0.34323,-1.48731 1.55268,-1.79784 l 1.29118,-0.34323 m 0,3.02365 c 0.0981,0.50666 0.26151,0.94795 1.09505,0.94795 0.62107,0 1.20946,-0.27785 1.55268,-0.60473 -0.0327,-0.19613 -0.0981,-0.32688 -0.27784,-0.44129 -0.13076,0.11441 -0.40861,0.26151 -0.60473,0.26151 -0.47398,0 -0.49032,-0.63742 -0.49032,-1.38924 l 0,-2.40258 c 0,-2.32085 -1.27484,-2.76214 -2.46795,-2.76214 -1.34021,0 -2.69677,0.88258 -2.69677,1.81419 0,0.39226 0.19613,0.58838 0.57204,0.58838 0.47398,0 0.76817,-0.34322 0.76817,-0.55569 0,-0.11441 -0.0163,-0.22882 -0.049,-0.2942 -0.0163,-0.049 -0.0327,-0.14709 -0.0327,-0.32688 0,-0.50666 0.68645,-0.68645 1.30752,-0.68645 0.5557,0 1.32387,0.27785 1.32387,2.12473 0,0.11441 -0.049,0.17978 -0.0981,0.19613 l -1.40559,0.34322 c -1.56903,0.39226 -2.69677,1.25849 -2.69677,2.36989 0,1.34021 0.91527,1.76515 2.05935,1.76515 0.5557,0 1.06237,-0.13075 1.7815,-0.68645 l 0.32688,-0.2615 0.0327,0"
       style=""
       id="path3050" />
    <path
       d="m 320.28242,108.76302 c -0.11441,0.11441 -0.19613,0.16344 -0.19613,0 -0.0163,-0.44129 -0.0654,-1.06236 -0.13075,-1.24215 -0.049,-0.0654 -0.0654,-0.13075 -0.19613,-0.13075 -0.45763,0.17978 -0.88258,0.32688 -2.01032,0.47398 -0.0327,0.0981 0,0.35956 0.0327,0.45763 0.88258,0.0817 1.06236,0.16344 1.06236,1.11139 l 0,3.18709 c 0,1.34021 -0.16344,1.40559 -1.14408,1.48731 -0.0981,0.0981 -0.0981,0.44129 0,0.53935 0.49032,-0.0163 1.14408,-0.0327 1.79784,-0.0327 0.65376,0 1.14409,0.0163 1.63441,0.0327 0.0981,-0.0981 0.0981,-0.44129 0,-0.53935 -0.83355,-0.0817 -0.99699,-0.1471 -0.99699,-1.48731 l 0,-2.68042 c 0,-0.34323 0.1471,-0.53935 0.27785,-0.68645 0.62107,-0.60473 1.35656,-0.9643 1.99397,-0.9643 0.32688,0 0.67011,0.21247 0.86624,0.58839 0.16344,0.32688 0.19612,0.76817 0.19612,1.25849 l 0,2.48429 c 0,1.34021 -0.16344,1.40559 -1.01333,1.48731 -0.0817,0.0981 -0.0817,0.44129 0,0.53935 0.49032,-0.0163 1.01333,-0.0327 1.6671,-0.0327 0.65376,0 1.24214,0.0163 1.73246,0.0327 0.0817,-0.0981 0.0817,-0.44129 0,-0.53935 -0.91526,-0.0817 -1.09505,-0.1471 -1.09505,-1.48731 l 0,-2.43526 c 0,-0.89892 -0.0654,-1.68344 -0.44129,-2.1901 -0.27784,-0.35957 -0.78451,-0.5557 -1.35655,-0.5557 -0.80086,0 -1.71613,0.21247 -2.68042,1.32387"
       style=""
       id="path3052" />
    <path
       d="m 330.93822,110.80602 0,2.15741 c 0,0.21248 -0.0981,0.32689 -0.22882,0.42495 -0.42495,0.34322 -0.98064,0.71914 -1.43828,0.71914 -0.8172,0 -1.17677,-0.65377 -1.17677,-1.16043 0,-0.73548 0.34323,-1.48731 1.55269,-1.79784 l 1.29118,-0.34323 m 0,3.02365 c 0.0981,0.50666 0.2615,0.94795 1.09505,0.94795 0.62107,0 1.20945,-0.27785 1.55268,-0.60473 -0.0327,-0.19613 -0.0981,-0.32688 -0.27785,-0.44129 -0.13075,0.11441 -0.4086,0.26151 -0.60473,0.26151 -0.47398,0 -0.49032,-0.63742 -0.49032,-1.38924 l 0,-2.40258 c 0,-2.32085 -1.27484,-2.76214 -2.46795,-2.76214 -1.34021,0 -2.69676,0.88258 -2.69676,1.81419 0,0.39226 0.19612,0.58838 0.57204,0.58838 0.47397,0 0.76817,-0.34322 0.76817,-0.55569 0,-0.11441 -0.0163,-0.22882 -0.049,-0.2942 -0.0163,-0.049 -0.0327,-0.14709 -0.0327,-0.32688 0,-0.50666 0.68645,-0.68645 1.30752,-0.68645 0.5557,0 1.32387,0.27785 1.32387,2.12473 0,0.11441 -0.049,0.17978 -0.0981,0.19613 l -1.40559,0.34322 c -1.56902,0.39226 -2.69676,1.25849 -2.69676,2.36989 0,1.34021 0.91527,1.76515 2.05935,1.76515 0.55569,0 1.06236,-0.13075 1.7815,-0.68645 l 0.32688,-0.2615 0.0327,0"
       style=""
       id="path3054" />
    <path
       d="m 335.17184,112.62021 c 0,1.35655 -0.17979,1.43827 -1.17677,1.48731 -0.0981,0.0981 -0.0981,0.44129 0,0.53935 0.57204,-0.0163 1.17677,-0.0327 1.83053,-0.0327 0.65376,0 1.27484,0.0163 1.81419,0.0327 0.0981,-0.0981 0.0981,-0.44129 0,-0.53935 -0.99699,-0.049 -1.17677,-0.13076 -1.17677,-1.48731 l 0,-7.5346 c 0,-1.06236 0.0654,-1.71612 0.0654,-1.71612 0,-0.11441 -0.0654,-0.16344 -0.21247,-0.16344 -0.4086,0.16344 -1.6344,0.39225 -2.28816,0.44129 -0.0327,0.13075 0,0.39225 0.0981,0.49032 0.94795,0.0654 1.04602,0.11441 1.04602,1.34021 l 0,7.14234"
       style=""
       id="path3056" />
    <path
       d="m 341.2628,117.22923 c 0.24516,-0.44129 0.45764,-0.91527 0.67011,-1.40559 1.30752,-3.1544 2.02666,-4.82149 2.89289,-6.66837 0.31054,-0.68644 0.5557,-0.94795 1.32387,-1.04601 0.0981,-0.0981 0.0981,-0.44129 0,-0.53936 -0.32688,0.0164 -0.7028,0.0327 -1.16043,0.0327 -0.49032,0 -0.99699,-0.0163 -1.48731,-0.0327 -0.0981,0.0981 -0.0981,0.44129 0,0.53936 0.50667,0.049 1.04602,0.14709 0.78452,0.73548 l -1.63441,3.74278 c -0.1144,0.27785 -0.24516,0.31054 -0.39225,-0.0163 l -1.43828,-3.39956 c -0.29419,-0.68645 -0.39225,-0.98064 0.52301,-1.06236 0.0981,-0.0981 0.0981,-0.44129 0,-0.53936 -0.60473,0.0164 -1.25849,0.0327 -1.84687,0.0327 -0.5557,0 -0.99699,-0.0163 -1.32387,-0.0327 -0.0981,0.0981 -0.0981,0.44129 0,0.53936 0.65376,0.0817 0.86623,0.22881 1.29118,1.2258 l 1.84687,4.29848 c 0.1471,0.34322 0.39226,1.07871 0.22882,1.53634 -0.17978,0.5557 -0.39226,0.99699 -0.63742,1.50365 -0.17978,0.32688 -0.4086,0.47398 -0.8172,0.47398 -0.22881,0 -0.29419,-0.049 -0.47398,-0.049 -0.47397,0 -0.71913,0.49033 -0.71913,0.7028 0,0.34322 0.32688,0.60473 0.76817,0.60473 0.34322,0 0.99698,-0.13076 1.58537,-1.17677 l 0.0163,0"
       style=""
       id="path3058" />
    <path
       d="m 347.14052,112.35871 c 0.0654,0.80085 0.1144,1.56902 0.1144,2.25547 0.16344,-0.0327 0.32689,-0.049 0.40861,-0.049 0.1144,0 0.21247,0 0.32688,0.0327 0.44128,0.11441 0.88257,0.17978 1.4873,0.17978 0.91527,0 2.5987,-0.44129 2.5987,-2.05935 0,-1.11139 -0.80085,-1.76515 -1.91225,-2.17375 -0.99698,-0.35957 -1.6344,-0.62108 -1.6344,-1.52 0,-0.6701 0.58838,-1.04602 1.14408,-1.04602 0.35957,0 1.30752,0.13076 1.52,1.52 0.0981,0.0981 0.42494,0.0817 0.52301,-0.0163 0.049,-0.58839 0.0817,-1.19312 0.0981,-1.73247 -0.50666,-0.0817 -1.29118,-0.31054 -2.14107,-0.31054 -1.20946,0 -2.30451,0.78452 -2.30451,1.83053 0,1.19312 0.53936,1.69978 1.79785,2.22279 1.35655,0.5557 1.66709,0.89892 1.66709,1.60172 0,0.80085 -0.78452,1.14408 -1.38925,1.14408 -0.63741,0 -0.99698,-0.21247 -1.16042,-0.39226 -0.35957,-0.37591 -0.53935,-1.09505 -0.63742,-1.50365 -0.0981,-0.0981 -0.4086,-0.0817 -0.50666,0.0164"
       style=""
       id="path3060" />
    <path
       d="m 354.21135,104.82411 c 0,0.42494 0.39226,0.84989 0.78451,0.84989 0.45764,0 0.84989,-0.42495 0.84989,-0.78452 0,-0.39225 -0.34322,-0.84989 -0.78451,-0.84989 -0.39226,0 -0.84989,0.39226 -0.84989,0.78452 m 1.48731,7.7961 0,-3.25246 c 0,-0.8172 0.0654,-1.86322 0.0654,-1.86322 0,-0.0654 -0.0817,-0.11441 -0.21247,-0.11441 -0.47398,0.17978 -1.11139,0.32688 -2.23913,0.47398 -0.0327,0.0981 0,0.35956 0.0327,0.45763 0.88257,0.0981 1.06236,0.17978 1.06236,1.11139 l 0,3.18709 c 0,1.35655 -0.17979,1.40559 -1.17677,1.48731 -0.0981,0.0981 -0.0981,0.44129 0,0.53935 0.53935,-0.0163 1.17677,-0.0327 1.83053,-0.0327 0.65376,0 1.27483,0.0163 1.81419,0.0327 0.0981,-0.0981 0.0981,-0.44129 0,-0.53935 -0.99699,-0.0654 -1.17677,-0.13076 -1.17677,-1.48731"
       style=""
       id="path3062" />
    <path
       d="m 357.96205,112.35871 c 0.0654,0.80085 0.11441,1.56902 0.11441,2.25547 0.16344,-0.0327 0.32688,-0.049 0.4086,-0.049 0.11441,0 0.21247,0 0.32688,0.0327 0.44129,0.11441 0.88258,0.17978 1.48731,0.17978 0.91526,0 2.5987,-0.44129 2.5987,-2.05935 0,-1.11139 -0.80086,-1.76515 -1.91225,-2.17375 -0.99699,-0.35957 -1.63441,-0.62108 -1.63441,-1.52 0,-0.6701 0.58839,-1.04602 1.14408,-1.04602 0.35957,0 1.30753,0.13076 1.52,1.52 0.0981,0.0981 0.42494,0.0817 0.52301,-0.0163 0.049,-0.58839 0.0817,-1.19312 0.0981,-1.73247 -0.50666,-0.0817 -1.29118,-0.31054 -2.14107,-0.31054 -1.20945,0 -2.3045,0.78452 -2.3045,1.83053 0,1.19312 0.53935,1.69978 1.79784,2.22279 1.35655,0.5557 1.66709,0.89892 1.66709,1.60172 0,0.80085 -0.78451,1.14408 -1.38924,1.14408 -0.63742,0 -0.99699,-0.21247 -1.16043,-0.39226 -0.35957,-0.37591 -0.53935,-1.09505 -0.63742,-1.50365 -0.0981,-0.0981 -0.4086,-0.0817 -0.50666,0.0164"
       style=""
       id="path3064" />
    <path
       d="m 374.15286,113.12687 c -0.0654,-0.14709 -0.19613,-0.21247 -0.34323,-0.22881 -0.55569,0.71913 -1.25849,1.0787 -1.96128,1.0787 -1.19311,0 -2.1901,-1.20946 -2.1901,-3.12171 0,-1.79784 0.78451,-2.87655 1.86322,-2.87655 0.9643,0 1.09505,0.57205 1.16043,1.14409 0.049,0.44129 0.27784,0.58838 0.62107,0.58838 0.34322,0 0.80086,-0.21247 0.80086,-0.71914 0,-0.89892 -0.93161,-1.55268 -2.50064,-1.55268 -1.61806,0 -3.35053,1.45462 -3.35053,3.77547 0,2.10838 1.17678,3.563 3.23612,3.563 0.98064,0 1.84688,-0.31054 2.66408,-1.65075"
       style=""
       id="path3066" />
    <path
       d="m 375.30895,111.26365 c 0,1.66709 1.11139,3.51397 3.43224,3.51397 1.04602,0 1.83053,-0.35957 2.38623,-0.91526 0.73548,-0.7028 1.07871,-1.73247 1.07871,-2.7458 0,-1.69978 -0.93162,-3.67741 -3.43225,-3.67741 -1.07871,0 -1.97763,0.44129 -2.56601,1.14408 -0.58839,0.7028 -0.89892,1.65075 -0.89892,2.68042 m 3.21977,-3.25246 c 1.40558,0 2.27182,1.27484 2.27182,3.62838 0,2.05934 -1.06236,2.56601 -1.83053,2.56601 -1.69978,0 -2.25548,-2.05935 -2.25548,-3.31784 0,-1.42193 0.34323,-2.87655 1.81419,-2.87655"
       style=""
       id="path3068" />
    <path
       d="m 388.64109,112.58752 c 0,0.31054 -0.0327,0.44129 -0.26151,0.63742 -0.60473,0.52301 -1.12774,0.78451 -1.53634,0.78451 -0.88257,0 -1.79784,-0.9643 -1.79784,-3.0073 0,-1.17677 0.22882,-1.83053 0.47398,-2.17376 0.50666,-0.76816 1.19311,-0.8172 1.51999,-0.8172 0.58839,0 0.99699,0.21248 1.32387,0.58839 0.22881,0.2615 0.27785,0.37591 0.27785,0.88258 l 0,3.10536 m -0.17979,1.20946 c 0.0654,-0.0654 0.22882,-0.0981 0.24516,0.0163 0.0327,0.4086 0.17979,0.9643 0.17979,0.9643 0.13075,0.049 0.21247,0.049 0.31053,0 0.35957,-0.29419 0.93161,-0.53935 1.9286,-0.65376 0.0981,-0.0981 0.0981,-0.34322 0,-0.44129 -1.04602,-0.0817 -1.19311,-0.39226 -1.19311,-1.19311 l 0,-7.40385 c 0,-1.06236 0.0654,-1.71612 0.0654,-1.71612 0,-0.11441 -0.0654,-0.16344 -0.21247,-0.16344 -0.4086,0.16344 -1.6344,0.39225 -2.28817,0.44129 -0.0327,0.13075 0,0.39225 0.0981,0.49032 0.84989,0.049 1.04602,-0.0327 1.04602,1.34021 l 0,2.09203 c 0,0.11441 -0.0327,0.1471 -0.1471,0.1471 -0.0654,0 -0.73548,-0.27785 -1.27483,-0.27785 -1.07871,0 -1.79785,0.35957 -2.45161,0.98064 -0.70279,0.7028 -1.12774,1.6671 -1.12774,2.87655 0,2.01032 1.01333,3.48128 2.77849,3.48128 0.63741,0 1.24215,-0.32688 2.043,-0.98064"
       style=""
       id="path3070" />
    <path
       d="m 393.29682,110.00516 c 0.31053,-1.84687 1.45462,-1.99397 1.84687,-1.99397 0.62108,0 1.35656,0.34323 1.35656,1.71613 0,0.14709 -0.0654,0.22881 -0.24516,0.22881 l -2.95827,0.049 m 4.28213,3.08903 c -0.60473,0.62107 -1.0787,0.88257 -2.02666,0.88257 -0.58838,0 -1.27483,-0.34322 -1.7815,-1.17677 -0.32688,-0.53935 -0.52301,-1.29118 -0.52301,-2.23913 l 4.34752,0.0327 c 0.19613,0 0.31053,-0.0981 0.31053,-0.27785 0,-1.3729 -0.49032,-2.84386 -2.76214,-2.84386 -1.42193,0 -3.2688,1.35656 -3.2688,3.84085 0,0.91526 0.22881,1.79784 0.76817,2.41891 0.55569,0.65376 1.32386,1.04602 2.50063,1.04602 1.24215,0 2.12473,-0.57204 2.77849,-1.42193 -0.049,-0.16344 -0.1471,-0.24516 -0.34323,-0.2615"
       style=""
       id="path3072" />
  </g>
</svg>
